<?xml version="1.0" standalone="no"?>
<!DOCTYPE svg PUBLIC "-//W3C//DTD SVG 20010904//EN"
 "http://www.w3.org/TR/2001/REC-SVG-20010904/DTD/svg10.dtd">
<svg version="1.0" xmlns="http://www.w3.org/2000/svg"
 width="665.000000pt" height="619.000000pt" viewBox="0 0 665.000000 619.000000"
 preserveAspectRatio="xMidYMid meet">
<metadata>
Created by potrace 1.16, written by Peter Selinger 2001-2019
</metadata>
<g transform="translate(0.000000,619.000000) scale(0.100000,-0.100000)"
fill="#000000" stroke="none">
<path d="M0 3095 l0 -3095 3325 0 3325 0 0 3095 0 3095 -3325 0 -3325 0 0
-3095z m3572 2625 c185 -19 270 -35 398 -78 41 -13 89 -28 105 -32 61 -16 153
-53 265 -104 63 -30 149 -69 190 -88 56 -26 331 -197 359 -224 11 -11 -201
-254 -222 -254 -6 0 -51 25 -101 56 -171 107 -450 244 -581 286 -30 10 -44 14
-146 42 -106 29 -254 55 -349 61 -52 3 -111 8 -130 9 -49 5 -271 -12 -350 -25
-148 -25 -420 -98 -515 -139 -11 -4 -47 -18 -80 -31 -197 -73 -337 -162 -620
-390 -195 -158 -271 -243 -452 -511 -95 -141 -154 -258 -220 -438 -26 -71 -76
-244 -88 -300 -4 -19 -11 -53 -16 -75 -43 -203 -57 -607 -26 -790 29 -175 103
-436 159 -565 53 -121 146 -285 248 -435 157 -230 433 -494 640 -610 47 -26
112 -66 144 -88 137 -93 486 -234 661 -268 200 -39 500 -52 658 -28 403 59
676 152 972 332 217 133 428 320 600 535 130 162 303 471 368 657 58 166 104
361 138 585 7 48 12 165 11 271 -1 286 -51 537 -158 812 -34 86 -106 230 -125
252 -19 20 -5 41 103 156 81 86 118 119 132 117 23 -3 91 -96 135 -183 70
-142 195 -581 225 -790 12 -88 24 -359 17 -411 -1 -8 -40 -10 -136 -6 l-135 5
-1 -39 c-2 -92 -30 -333 -49 -419 -6 -27 -14 -65 -17 -83 -3 -18 -9 -35 -14
-38 -5 -3 -9 -18 -9 -34 0 -16 -4 -32 -10 -35 -5 -3 -10 -15 -10 -27 0 -19
-31 -125 -51 -173 -4 -11 -15 -42 -24 -70 -21 -63 -92 -213 -137 -285 -29 -48
-64 -99 -213 -316 -16 -24 -95 -108 -175 -187 -147 -147 -312 -277 -450 -357
-96 -56 -242 -130 -257 -130 -6 0 -31 -10 -55 -21 -23 -12 -52 -25 -63 -29
-11 -4 -31 -12 -45 -18 -14 -6 -36 -13 -50 -15 -32 -7 -130 -33 -195 -52 -28
-9 -75 -20 -105 -26 -30 -6 -80 -15 -110 -21 -30 -5 -163 -13 -295 -17 -234
-6 -238 -6 -140 -15 55 -6 141 -9 190 -8 153 4 452 46 510 73 19 8 98 29 120
31 6 1 23 -2 38 -6 19 -4 27 -3 27 7 0 16 47 40 61 31 5 -3 12 2 15 10 3 9 17
16 30 16 13 0 24 5 24 10 0 6 10 10 22 10 19 0 24 -7 6 -9 -5 -1 -17 -10 -28
-21 -12 -12 -25 -18 -30 -15 -6 4 -13 -1 -16 -9 -3 -9 -15 -16 -25 -16 -14 0
-21 -9 -25 -30 -4 -16 -10 -27 -15 -24 -5 3 -9 -4 -9 -15 0 -23 -32 -31 -71
-17 -27 10 -122 -11 -113 -25 8 -14 -15 -20 -35 -9 -22 11 -35 -1 -36 -35 0
-31 -29 -24 -33 7 -3 26 -35 48 -49 34 -4 -3 0 -6 8 -6 11 0 14 -17 14 -78 l0
-77 -28 -3 c-32 -4 -47 -29 -26 -43 8 -5 23 -7 34 -5 11 3 27 1 35 -4 18 -11
6 -16 -60 -25 -25 -3 -83 -10 -130 -17 -169 -23 -526 -5 -778 37 -23 4 -45 12
-48 16 -3 5 -23 9 -44 9 -21 0 -42 4 -45 10 -3 5 -19 10 -35 10 -16 0 -32 4
-35 10 -3 5 -14 10 -24 10 -16 0 -48 11 -146 50 -11 5 -58 23 -105 40 -192 73
-478 232 -585 326 -16 14 -93 77 -170 139 -134 108 -229 200 -359 347 -200
227 -429 694 -505 1028 -52 233 -68 356 -75 600 -8 245 7 399 65 658 5 26 14
70 19 97 25 140 36 178 78 267 17 34 46 103 66 152 20 50 59 126 87 170 135
211 230 348 294 426 81 98 323 331 409 393 32 23 88 66 125 95 36 29 104 72
151 94 47 23 108 56 136 74 83 53 166 90 399 176 154 57 175 63 350 98 186 37
549 51 767 30z m2000 -532 c35 -13 60 -52 60 -93 0 -77 -52 -142 -423 -520
-124 -126 -257 -264 -295 -306 -94 -104 -605 -625 -1095 -1118 -376 -378 -453
-449 -519 -478 -57 -25 -82 -33 -98 -33 -27 0 -111 57 -198 135 -43 39 -98 88
-123 111 -26 22 -62 54 -81 70 -97 82 -448 430 -469 466 -19 32 -24 55 -25
112 -1 83 13 111 69 146 30 19 47 22 108 18 129 -6 210 -59 377 -247 97 -108
347 -355 364 -359 7 -1 251 235 542 525 291 290 614 609 718 708 286 275 394
382 617 610 208 214 253 249 339 266 39 8 92 3 132 -13z m-1742 -527 c584 5
565 5 565 -8 0 -11 -163 -190 -265 -291 -74 -73 -75 -73 -171 -61 -54 7 -163
9 -307 4 -129 -4 -363 -2 -561 6 -263 9 -367 9 -467 0 -148 -14 -169 -19 -279
-72 -121 -57 -190 -128 -253 -259 -27 -58 -53 -118 -57 -135 -19 -91 -26 -141
-31 -240 -5 -99 -3 -124 25 -248 l31 -138 0 -442 c0 -577 11 -658 114 -816 90
-139 160 -189 281 -202 39 -4 88 -12 110 -17 59 -16 974 -26 1291 -14 267 10
271 11 350 41 45 18 104 50 136 76 69 55 151 162 168 219 7 22 17 55 24 71 8
21 10 208 8 657 l-2 628 38 24 c20 13 43 31 51 40 7 9 19 16 25 16 6 0 20 14
29 30 10 17 21 30 25 30 4 0 43 43 87 95 44 51 85 94 91 94 20 1 24 -99 24
-684 -1 -988 -8 -1046 -164 -1280 -127 -190 -251 -299 -401 -349 -133 -45
-166 -47 -988 -49 -828 -1 -938 3 -1062 45 -103 35 -226 109 -294 177 -95 95
-239 300 -279 395 -37 89 -42 127 -53 381 -31 767 -17 1404 36 1660 12 55 112
249 162 313 73 94 200 194 298 235 45 19 106 40 136 46 92 20 418 30 809 24
206 -3 530 -4 720 -2z m-282 -687 c100 -5 152 -11 152 -18 0 -11 -299 -303
-329 -321 -29 -17 -85 -35 -113 -35 -89 0 -190 44 -261 115 -137 136 -254 202
-387 218 -24 2 -23 4 12 21 68 33 432 41 926 20z m700 -1206 c-5 -315 -7 -348
-26 -409 -42 -128 -139 -240 -262 -301 -44 -23 -50 -23 -370 -20 -179 1 -399
-2 -490 -8 -224 -15 -368 -2 -458 41 -116 56 -196 160 -251 328 -19 57 -21 88
-21 280 0 119 4 222 9 230 7 11 24 0 78 -50 37 -35 70 -67 73 -70 3 -3 30 -24
60 -46 76 -56 94 -77 130 -157 61 -132 175 -212 330 -235 41 -6 172 -12 290
-13 195 -3 220 -1 260 16 57 25 57 25 40 36 -12 8 -9 10 10 10 35 0 126 34
172 65 55 37 78 94 97 247 18 138 27 156 76 160 17 1 43 12 58 25 16 13 32 23
37 23 4 0 15 15 23 33 31 64 119 179 129 169 7 -7 9 -128 6 -354z m1416 -20
c-4 -6 -8 -34 -9 -60 -2 -44 0 -49 24 -55 31 -7 61 -31 61 -48 0 -7 -7 -18
-15 -25 -8 -7 -15 -28 -15 -47 0 -39 -17 -76 -30 -68 -15 9 -23 -41 -10 -65 6
-12 9 -24 6 -28 -3 -3 -6 0 -6 6 0 7 -16 12 -40 12 -41 0 -56 20 -26 37 8 4
14 15 14 23 -1 8 0 30 0 49 2 32 3 33 33 27 29 -6 30 -5 27 27 -1 17 -11 38
-20 45 -15 11 -18 28 -18 92 0 72 3 83 28 89 2 1 0 -4 -4 -11z"/>
</g>
</svg>
